<svg width="48" height="48" viewBox="0 0 48 48" fill="none" xmlns="http://www.w3.org/2000/svg">
<path d="M22 18H26V12H32V8H26V2H22V8H16V12H22M14 36C11.8 36 10 37.8 10 40C10 42.2 11.8 44 14 44C16.2 44 18 42.2 18 40C18 37.8 16.2 36 14 36ZM34 36C31.8 36 30 37.8 30 40C30 42.2 31.8 44 34 44C36.2 44 38 42.2 38 40C38 37.8 36.2 36 34 36ZM14.4 29.6V29.4L16.2 26H31C32.4 26 33.8 25.2 34.4 24L42.2 10L38.8 8L31 22H17L8.6 4H2V8H6L13.2 23.2L10.4 28C10.2 28.6 10 29.2 10 30C10 32.2 11.8 34 14 34H38V30H14.8C14.6 30 14.4 29.8 14.4 29.6Z" fill="#F8F8F8"/>
</svg>
