<svg width="90" height="90" viewBox="0 0 90 90" fill="none" xmlns="http://www.w3.org/2000/svg">
<path d="M32.6512 73.9013L67.5 39.0525L50.9475 22.5L16.0988 57.3488C15.619 57.8291 15.2782 58.4304 15.1125 59.0887L11.25 78.75L30.9075 74.8875C31.5675 74.7225 32.1712 74.3813 32.6512 73.9013ZM78.75 27.8025C80.156 26.396 80.9459 24.4887 80.9459 22.5C80.9459 20.5113 80.156 18.604 78.75 17.1975L72.8025 11.25C71.396 9.84397 69.4887 9.0541 67.5 9.0541C65.5113 9.0541 63.604 9.84397 62.1975 11.25L56.25 17.1975L72.8025 33.75L78.75 27.8025Z" fill="black"/>
</svg>
