<svg width="79" height="90" viewBox="0 0 79 90" fill="none" xmlns="http://www.w3.org/2000/svg">
<path d="M70.413 6.92308H60.538L55.1669 1.51875C54.2284 0.573384 52.9642 0.0293584 51.6377 0H27.1219C25.8818 0.0843139 24.7138 0.617561 23.8331 1.50144L18.462 6.92308H8.58696C6.30955 6.92308 4.12543 7.83482 2.51506 9.45773C0.904695 11.0806 0 13.2818 0 15.5769V81.3462C0 83.6413 0.904695 85.8424 2.51506 87.4653C4.12543 89.0883 6.30955 90 8.58696 90H70.413C72.6904 90 74.8746 89.0883 76.4849 87.4653C78.0953 85.8424 79 83.6413 79 81.3462V15.5769C79 13.2818 78.0953 11.0806 76.4849 9.45773C74.8746 7.83482 72.6904 6.92308 70.413 6.92308ZM25.7609 14.2788L26.3963 13.6385L33.0254 25.0962L25.7609 32.2269V14.2788ZM39.5 15.6678L36.4473 10.3846H42.5527L39.5 15.6678ZM53.2391 14.2788V32.2399L45.9746 25.0962L52.6037 13.6428L53.2391 14.2788ZM10.3043 17.3077H15.4565V36.3462C15.456 38.0547 15.9574 39.7252 16.8974 41.1471C17.8374 42.5689 19.174 43.6786 20.7388 44.3361C22.3036 44.9936 24.0265 45.1696 25.6904 44.8419C27.3543 44.5143 28.8847 43.6975 30.0887 42.4947L34.3478 38.2933V79.6154H10.3043V17.3077ZM68.6956 79.6154H44.6522V38.2933L48.9113 42.4861C50.1148 43.6884 51.6444 44.5049 53.3075 44.8329C54.9706 45.1608 56.6928 44.9856 58.2572 44.3291C59.8216 43.6726 61.1584 42.5644 62.099 41.1438C63.0397 39.7233 63.5423 38.054 63.5435 36.3462V17.3077H68.6956V79.6154Z" fill="black"/>
</svg>
