<svg width="84" height="100" viewBox="0 0 84 100" fill="none" xmlns="http://www.w3.org/2000/svg">
<path d="M30.0802 0.0301725C29.5261 0.113159 28.997 0.317941 28.5303 0.629991C28.5303 0.629991 23.7014 3.69061 18.5098 7.00115C13.3183 10.3078 7.54263 13.9529 6.22183 14.6911C6.14036 14.7268 6.06015 14.7652 5.98134 14.8065C1.18677 17.7864 0.190443 22.6541 0.0186625 25.3841C0.00721052 25.5109 0.0186625 25.6148 0.0186625 25.7493C-0.0233282 26.7721 0.0186625 27.4296 0.0186625 27.4296V77.6567C0.0186625 84.9545 8.46642 88.465 16.4828 88.465C19.155 88.465 21.8271 88.0305 24.1175 87.2615C25.6444 86.4925 26.74 84.9545 26.74 83.4165V43.0441C26.74 34.2006 28.6487 30.048 34.3747 26.5875C35.9016 25.8185 51.9115 14.6873 51.9115 14.6873C52.675 13.9183 53.4613 12.3572 53.4613 11.2037V10.8423C53.4613 9.3043 52.6979 8.12773 51.5527 7.35873C50.4075 6.58973 48.8805 6.58973 47.7353 7.35873C47.3536 7.74323 24.0679 23.5346 19.1053 26.2261C14.1428 29.3021 9.51237 30.0442 8.36717 28.5062C8.01216 28.1486 7.70295 27.0528 7.65333 25.9839V25.7416C7.65715 24.6958 7.92436 22.7272 10.0392 21.416C12.1845 20.2125 17.5097 16.7867 22.686 13.4876C24.8733 12.0919 25.1444 11.942 26.8583 10.8423C27.084 11.7816 27.6525 12.6009 28.4507 13.1371C29.249 13.6732 30.2184 13.887 31.166 13.7357C32.1137 13.5845 32.97 13.0793 33.5646 12.3209C34.1592 11.5624 34.4484 10.6062 34.3747 9.64266V3.87517C34.3789 3.32712 34.2668 2.78449 34.0459 2.28364C33.8249 1.7828 33.5002 1.33532 33.0935 0.97121C32.6869 0.607096 32.2076 0.334761 31.6879 0.172461C31.1682 0.0101614 30.62 -0.0383523 30.0802 0.0301725ZM60.6188 13.4876C60.0118 13.5893 59.4382 13.8373 58.9468 14.2105C58.9468 14.2105 39.7304 27.2335 36.4017 29.4674C36.3613 29.5076 36.3219 29.5486 36.2833 29.5905C33.5196 31.6783 31.8819 34.1622 31.1528 36.4346C30.7443 37.7165 30.5432 39.0563 30.5573 40.4026V41.6061C30.5518 41.7252 30.5518 41.8445 30.5573 41.9637V88.465C30.5573 95.7705 38.9097 100 46.5443 100C49.9799 100 53.0796 99.2541 55.37 97.7161C59.9508 95.0246 82.0913 77.6529 82.0913 77.6529C83.2365 76.8839 84 75.7996 84 74.6461V24.6612C84 22.7387 83.2594 21.5852 81.7325 20.8162C80.5873 20.0472 78.7054 20.4086 77.5602 21.1776C71.4524 25.7916 55.0112 38.8185 51.1938 41.1255C45.8496 44.2015 40.8145 44.9705 38.9058 43.048C38.1424 42.279 38.192 41.5561 38.192 40.4026C38.2149 39.7413 38.2874 39.1722 38.4325 38.7185C38.6463 38.0495 39.0814 37.2266 40.6962 35.9578C40.7725 35.8963 40.7343 35.9001 40.8145 35.8386C43.5744 33.9815 52.0146 28.1871 57.5192 24.419C57.831 25.2617 58.4263 25.9676 59.2014 26.414C59.9765 26.8603 60.8825 27.0189 61.7617 26.8621C62.6409 26.7053 63.4377 26.243 64.0135 25.5557C64.5893 24.8683 64.9077 23.9995 64.9133 23.1001V17.3326C64.9176 16.7846 64.8055 16.242 64.5846 15.7411C64.3636 15.2403 64.0389 14.7928 63.6322 14.4287C63.2255 14.0646 62.7463 13.7922 62.2266 13.6299C61.7068 13.4676 61.1587 13.4191 60.6188 13.4876ZM76.3653 41.6061V49.2961L57.2787 64.1916V56.5016L76.3653 41.6061Z" fill="black"/>
</svg>
