<svg width="29" height="24" viewBox="0 0 29 24" fill="none" xmlns="http://www.w3.org/2000/svg">
<path d="M18.9053 14H17.9798L17.6517 13.73C18.8396 12.554 19.4924 11.0527 19.4911 9.5C19.4911 8.21442 19.0445 6.95772 18.2077 5.8888C17.3709 4.81988 16.1816 3.98676 14.79 3.49479C13.3985 3.00282 11.8673 2.87409 10.3901 3.1249C8.91284 3.3757 7.5559 3.99477 6.49087 4.90381C5.42584 5.81285 4.70055 6.97104 4.40671 8.23192C4.11287 9.49279 4.26368 10.7997 4.84007 11.9874C5.41646 13.1752 6.39254 14.1903 7.64488 14.9046C8.89723 15.6188 10.3696 16 11.8758 16C13.762 16 15.496 15.41 16.8316 14.43L17.148 14.71V15.5L23.0059 20.49L24.7516 19L18.9053 14ZM11.8758 14C8.95849 14 6.60357 11.99 6.60357 9.5C6.60357 7.01 8.95849 5 11.8758 5C14.793 5 17.148 7.01 17.148 9.5C17.148 11.99 14.793 14 11.8758 14Z" fill="#F8F8F8"/>
</svg>
