<svg width="20" height="16" viewBox="0 0 20 16" fill="none" xmlns="http://www.w3.org/2000/svg">
<path d="M10.0962 13.3558L5.66639 15.7225C5.47069 15.833 5.2661 15.8803 5.05262 15.8645C4.83914 15.8487 4.65234 15.7856 4.49222 15.6752C4.33211 15.5647 4.20758 15.4265 4.11863 15.2605C4.02968 15.0945 4.01189 14.9093 4.06526 14.7048L5.23942 10.2318L1.31665 7.22604C1.13875 7.08404 1.02774 6.92215 0.983615 6.74039C0.939495 6.55863 0.95266 6.38128 1.02311 6.20836C1.09427 6.0348 1.20101 5.89279 1.34334 5.78235C1.48566 5.6719 1.68135 5.6009 1.93042 5.56934L7.1074 5.16701L9.10882 0.954271C9.19777 0.764934 9.33582 0.622932 9.52297 0.528263C9.71013 0.433595 9.9012 0.386261 10.0962 0.386261C10.2919 0.386261 10.4829 0.433595 10.6694 0.528263C10.8558 0.622932 10.9939 0.764934 11.0835 0.954271L13.085 5.16701L18.2619 5.56934C18.511 5.6009 18.7067 5.6719 18.849 5.78235C18.9913 5.89279 19.0981 6.0348 19.1692 6.20836C19.2404 6.38191 19.2539 6.55957 19.2098 6.74134C19.1657 6.9231 19.0543 7.08467 18.8757 7.22604L14.9529 10.2318L16.1271 14.7048C16.1805 14.9099 16.1627 15.0955 16.0737 15.2615C15.9848 15.4275 15.8602 15.5654 15.7001 15.6752C15.54 15.7856 15.3532 15.8487 15.1397 15.8645C14.9263 15.8803 14.7217 15.833 14.526 15.7225L10.0962 13.3558Z" fill="#FFD233"/>
</svg>
