<svg width="43" height="43" viewBox="0 0 43 43" fill="none" xmlns="http://www.w3.org/2000/svg">
<circle cx="21.5" cy="21.5" r="21.5" fill="#D9D9D9"/>
<path d="M32.46 16C31.69 16.35 30.86 16.58 30 16.69C30.88 16.16 31.56 15.32 31.88 14.31C31.05 14.81 30.13 15.16 29.16 15.36C28.37 14.5 27.26 14 26 14C23.65 14 21.73 15.92 21.73 18.29C21.73 18.63 21.77 18.96 21.84 19.27C18.28 19.09 15.11 17.38 13 14.79C12.63 15.42 12.42 16.16 12.42 16.94C12.42 18.43 13.17 19.75 14.33 20.5C13.62 20.5 12.96 20.3 12.38 20V20.03C12.38 22.11 13.86 23.85 15.82 24.24C15.1908 24.4122 14.5301 24.4362 13.89 24.31C14.1616 25.1625 14.6936 25.9084 15.4111 26.4429C16.1285 26.9775 16.9955 27.2737 17.89 27.29C16.3737 28.4904 14.494 29.1393 12.56 29.13C12.22 29.13 11.88 29.11 11.54 29.07C13.44 30.29 15.7 31 18.12 31C26 31 30.33 24.46 30.33 18.79C30.33 18.6 30.33 18.42 30.32 18.23C31.16 17.63 31.88 16.87 32.46 16Z" fill="black"/>
</svg>
