<svg width="20" height="18" viewBox="0 0 20 18" fill="none" xmlns="http://www.w3.org/2000/svg">
<path d="M8 18V16.1C8 15.75 8.08767 15.4207 8.263 15.112C8.43833 14.8033 8.67567 14.5577 8.975 14.375C9.74167 13.925 10.546 13.5833 11.388 13.35C12.23 13.1167 13.1007 13 14 13C14.9 13 15.771 13.1167 16.613 13.35C17.455 13.5833 18.259 13.925 19.025 14.375C19.325 14.5583 19.5627 14.8043 19.738 15.113C19.9133 15.4217 20.0007 15.7507 20 16.1V18H8ZM0 18V6L8 0L13.375 4.05C12.125 4.2 11.0833 4.746 10.25 5.688C9.41667 6.63 9 7.734 9 9C9 9.51667 9.071 10.0043 9.213 10.463C9.355 10.9217 9.559 11.3507 9.825 11.75C9.49167 11.8833 9.171 12.021 8.863 12.163C8.555 12.305 8.25067 12.4673 7.95 12.65C7.35 13 6.875 13.4877 6.525 14.113C6.175 14.7383 6 15.4007 6 16.1V18H0ZM14 12C13.1667 12 12.4583 11.7083 11.875 11.125C11.2917 10.5417 11 9.83333 11 9C11 8.16667 11.2917 7.45833 11.875 6.875C12.4583 6.29167 13.1667 6 14 6C14.8333 6 15.5417 6.29167 16.125 6.875C16.7083 7.45833 17 8.16667 17 9C17 9.83333 16.7083 10.5417 16.125 11.125C15.5417 11.7083 14.8333 12 14 12Z" fill="#F8F8F8"/>
</svg>
