<svg width="43" height="43" viewBox="0 0 43 43" fill="none" xmlns="http://www.w3.org/2000/svg">
<circle cx="21.5" cy="21.5" r="21.5" fill="#D9D9D9"/>
<path d="M22.0773 13H22.2108C23.4438 13.0045 29.6917 13.0499 31.3763 13.5067C31.8856 13.6461 32.3497 13.9179 32.7222 14.2948C33.0946 14.6717 33.3625 15.1406 33.499 15.6546C33.6505 16.2294 33.757 16.9902 33.829 17.7752L33.844 17.9326L33.877 18.3258L33.889 18.4831C33.9865 19.8656 33.9985 21.1604 34 21.4433V21.5567C33.9985 21.8502 33.985 23.2327 33.877 24.6727L33.865 24.8315L33.8515 24.9888C33.7765 25.854 33.6655 26.7131 33.499 27.3454C33.3629 27.8596 33.0952 28.3287 32.7227 28.7057C32.3501 29.0827 31.8858 29.3543 31.3763 29.4933C29.6362 29.9652 23.0223 29.9985 22.1058 30H21.8927C21.4292 30 19.5121 29.9909 17.502 29.9213L17.247 29.9123L17.1164 29.9062L16.8599 29.8956L16.6034 29.885C14.9383 29.8109 13.3527 29.6914 12.6222 29.4918C12.1129 29.3529 11.6487 29.0815 11.2762 28.7048C10.9036 28.3281 10.6358 27.8593 10.4995 27.3454C10.333 26.7147 10.222 25.854 10.147 24.9888L10.135 24.83L10.123 24.6727C10.049 23.6477 10.008 22.6206 10 21.593L10 21.407C10.003 21.0818 10.015 19.9579 10.096 18.7176L10.1065 18.5618L10.111 18.4831L10.123 18.3258L10.156 17.9326L10.171 17.7752C10.243 16.9902 10.3495 16.2279 10.501 15.6546C10.6371 15.1404 10.9048 14.6713 11.2773 14.2943C11.6499 13.9173 12.1142 13.6457 12.6237 13.5067C13.3542 13.3101 14.9398 13.1891 16.6049 13.1134L16.8599 13.1029L17.1179 13.0938L17.247 13.0892L17.5035 13.0787C18.9311 13.0323 20.3594 13.0066 21.7877 13.0015H22.0773V13ZM19.6006 17.8554V25.1431L25.8365 21.5008L19.6006 17.8554Z" fill="black"/>
</svg>
